<mxfile host="app.diagrams.net" modified="2021-06-21T14:06:28.273Z" agent="5.0 (Macintosh; Intel Mac OS X 10_15_6) AppleWebKit/605.1.15 (KHTML, like Gecko) Version/14.0.3 Safari/605.1.15" etag="9dIecZX-cCGXQonp1WFF" version="14.7.7" type="github">
  <diagram id="WuOzuccCrgLuzyxY_K8_" name="Page-1">
    <mxGraphModel dx="946" dy="645" grid="1" gridSize="10" guides="1" tooltips="1" connect="1" arrows="1" fold="1" page="1" pageScale="1" pageWidth="850" pageHeight="1100" math="0" shadow="0">
      <root>
        <mxCell id="0" />
        <mxCell id="1" parent="0" />
        <mxCell id="pvMYcIoXpHOVo__6tDhx-1" value="" style="outlineConnect=0;dashed=0;verticalLabelPosition=bottom;verticalAlign=top;align=center;html=1;shape=mxgraph.aws3.alexa_voice_service;fillColor=#5294CF;gradientColor=none;" vertex="1" parent="1">
          <mxGeometry x="20" y="75" width="50" height="50" as="geometry" />
        </mxCell>
        <mxCell id="pvMYcIoXpHOVo__6tDhx-2" value="Twilio" style="rounded=1;whiteSpace=wrap;html=1;" vertex="1" parent="1">
          <mxGeometry x="210" y="70" width="120" height="60" as="geometry" />
        </mxCell>
        <mxCell id="pvMYcIoXpHOVo__6tDhx-3" value="Alexa" style="text;html=1;strokeColor=none;fillColor=none;align=center;verticalAlign=middle;whiteSpace=wrap;rounded=0;" vertex="1" parent="1">
          <mxGeometry x="25" y="50" width="40" height="20" as="geometry" />
        </mxCell>
        <mxCell id="pvMYcIoXpHOVo__6tDhx-4" value="" style="endArrow=classic;html=1;entryX=0;entryY=0.5;entryDx=0;entryDy=0;" edge="1" parent="1" target="pvMYcIoXpHOVo__6tDhx-2">
          <mxGeometry width="50" height="50" relative="1" as="geometry">
            <mxPoint x="70" y="100" as="sourcePoint" />
            <mxPoint x="120" y="50" as="targetPoint" />
          </mxGeometry>
        </mxCell>
        <mxCell id="pvMYcIoXpHOVo__6tDhx-5" value="Phone call" style="text;html=1;strokeColor=none;fillColor=none;align=center;verticalAlign=middle;whiteSpace=wrap;rounded=0;" vertex="1" parent="1">
          <mxGeometry x="80" y="75" width="120" height="20" as="geometry" />
        </mxCell>
        <mxCell id="pvMYcIoXpHOVo__6tDhx-6" value="" style="rounded=1;whiteSpace=wrap;html=1;" vertex="1" parent="1">
          <mxGeometry x="330" y="180" width="500" height="440" as="geometry" />
        </mxCell>
        <mxCell id="pvMYcIoXpHOVo__6tDhx-7" value="Heroku Instance" style="text;html=1;strokeColor=none;fillColor=none;align=center;verticalAlign=middle;whiteSpace=wrap;rounded=0;" vertex="1" parent="1">
          <mxGeometry x="365" y="150" width="120" height="20" as="geometry" />
        </mxCell>
        <mxCell id="pvMYcIoXpHOVo__6tDhx-15" style="edgeStyle=orthogonalEdgeStyle;rounded=0;orthogonalLoop=1;jettySize=auto;html=1;exitX=0;exitY=0.5;exitDx=0;exitDy=0;entryX=0.5;entryY=1;entryDx=0;entryDy=0;startArrow=classic;startFill=1;endArrow=none;endFill=0;" edge="1" parent="1" source="pvMYcIoXpHOVo__6tDhx-8" target="pvMYcIoXpHOVo__6tDhx-2">
          <mxGeometry relative="1" as="geometry">
            <Array as="points">
              <mxPoint x="270" y="300" />
            </Array>
          </mxGeometry>
        </mxCell>
        <mxCell id="pvMYcIoXpHOVo__6tDhx-22" style="edgeStyle=orthogonalEdgeStyle;rounded=0;orthogonalLoop=1;jettySize=auto;html=1;exitX=0;exitY=0.75;exitDx=0;exitDy=0;entryX=0.5;entryY=0;entryDx=0;entryDy=0;startArrow=none;startFill=0;endArrow=classic;endFill=1;" edge="1" parent="1" source="pvMYcIoXpHOVo__6tDhx-8" target="pvMYcIoXpHOVo__6tDhx-18">
          <mxGeometry relative="1" as="geometry" />
        </mxCell>
        <mxCell id="pvMYcIoXpHOVo__6tDhx-8" value="Node Server" style="rounded=0;whiteSpace=wrap;html=1;" vertex="1" parent="1">
          <mxGeometry x="370" y="230" width="180" height="140" as="geometry" />
        </mxCell>
        <mxCell id="pvMYcIoXpHOVo__6tDhx-25" style="edgeStyle=orthogonalEdgeStyle;rounded=0;orthogonalLoop=1;jettySize=auto;html=1;exitX=0;exitY=0.5;exitDx=0;exitDy=0;entryX=1;entryY=0.5;entryDx=0;entryDy=0;startArrow=classic;startFill=1;endArrow=classic;endFill=1;" edge="1" parent="1" source="pvMYcIoXpHOVo__6tDhx-11" target="pvMYcIoXpHOVo__6tDhx-18">
          <mxGeometry relative="1" as="geometry" />
        </mxCell>
        <mxCell id="pvMYcIoXpHOVo__6tDhx-11" value="Workflow" style="rounded=0;whiteSpace=wrap;html=1;" vertex="1" parent="1">
          <mxGeometry x="560" y="430" width="220" height="150" as="geometry" />
        </mxCell>
        <mxCell id="pvMYcIoXpHOVo__6tDhx-16" value="POST" style="text;html=1;strokeColor=none;fillColor=none;align=center;verticalAlign=middle;whiteSpace=wrap;rounded=0;" vertex="1" parent="1">
          <mxGeometry x="280" y="270" width="40" height="20" as="geometry" />
        </mxCell>
        <mxCell id="pvMYcIoXpHOVo__6tDhx-17" value="" style="rounded=1;whiteSpace=wrap;html=1;" vertex="1" parent="1">
          <mxGeometry x="90" y="580" width="40" height="40" as="geometry" />
        </mxCell>
        <mxCell id="pvMYcIoXpHOVo__6tDhx-24" style="edgeStyle=orthogonalEdgeStyle;rounded=0;orthogonalLoop=1;jettySize=auto;html=1;exitX=0.5;exitY=1;exitDx=0;exitDy=0;entryX=0.5;entryY=0;entryDx=0;entryDy=0;startArrow=classic;startFill=1;endArrow=classic;endFill=1;" edge="1" parent="1" source="pvMYcIoXpHOVo__6tDhx-18" target="pvMYcIoXpHOVo__6tDhx-20">
          <mxGeometry relative="1" as="geometry" />
        </mxCell>
        <mxCell id="pvMYcIoXpHOVo__6tDhx-18" value="IBOT" style="rounded=1;whiteSpace=wrap;html=1;" vertex="1" parent="1">
          <mxGeometry x="20" y="370" width="180" height="80" as="geometry" />
        </mxCell>
        <mxCell id="pvMYcIoXpHOVo__6tDhx-19" value="" style="ellipse;whiteSpace=wrap;html=1;aspect=fixed;" vertex="1" parent="1">
          <mxGeometry x="102.5" y="592.5" width="15" height="15" as="geometry" />
        </mxCell>
        <mxCell id="pvMYcIoXpHOVo__6tDhx-20" value="Relay" style="text;html=1;strokeColor=none;fillColor=none;align=center;verticalAlign=middle;whiteSpace=wrap;rounded=0;" vertex="1" parent="1">
          <mxGeometry x="90" y="560" width="40" height="20" as="geometry" />
        </mxCell>
        <mxCell id="pvMYcIoXpHOVo__6tDhx-23" value="HTTP INVOKE" style="text;html=1;strokeColor=none;fillColor=none;align=center;verticalAlign=middle;whiteSpace=wrap;rounded=0;" vertex="1" parent="1">
          <mxGeometry x="130" y="310" width="100" height="20" as="geometry" />
        </mxCell>
      </root>
    </mxGraphModel>
  </diagram>
</mxfile>
